PathFileType	4	(X/Y/Z)	C:/Users/beibeiliu/ov580/test_trc\sequence.40_training_dense_right.trc
DataRate	CameraRate	NumFrames	NumMarkers	Units	OrigDataRate	OrigDataStartFrame	OrigNumFrames
120	120	20	19	mm	120	1	400
Frame#	Time	ThumbCMC			ThumbMCP			ThumbIP			ThumbTip			IndexMCP			IndexPIP			IndexTip			MiddleMCP			MiddlePIP			MiddleTip			RingMCP			RingPIP			RingTip			PinkyMCP			PinkyPIP			PinkyTip			BackHand1			BackHand2			BackHand3	
		X0	Y0	Z0	X1	Y1	Z1	X2	Y2	Z2	X3	Y3	Z3	X4	Y4	Z4	X5	Y5	Z5	X6	Y6	Z6	X7	Y7	Z7	X8	Y8	Z8	X9	Y9	Z9	X10	Y10	Z10	X11	Y11	Z11	X12	Y12	Z12	X13	Y13	Z13	X14	Y14	Z14	X15	Y15	Z15	X16	Y16	Z16	X17	Y17	Z17	X18	Y18	Z18	
0	0	198.848	-24.8703	62.6744	198.525	-43.888	31.4092	209.936	-44.3123	7.67158	226.442	-41.4469	-8.22735	198.165	0.847186	1.37801	203.739	-15.5833	-23.4688	208.023	-38.1972	-30.4518	220.639	9.91854	-2.24214	221.369	-1.67919	-28.4598	231.79	-25.9695	-43.5729	238.232	5.15212	2.37321	241.812	-13.4239	-17.7412	244.873	-40.3374	-18.6688	254.368	10.6265	17.4309	261.436	9.09073	-3.70623	265.906	0.324363	-21.1549	232.459	13.4945	50.9072	229.895	11.0941	78.6591	206.239	6.57303	63.7796	
1	0.00833333	197.378	-26.1424	57.5616	200.493	-43.5775	34.7733	210.152	-45.1841	7.8533	223.016	-48.552	-9.1766	197.729	-2.1684	1.21554	200.911	-18.1099	-24.2244	213.429	-42.2472	-29.2017	215.87	7.36386	-1.64468	220.321	-5.6294	-31.4992	230.851	-28.4167	-44.9704	234.482	6.10397	0.117708	244.758	-6.17176	-18.0038	243.669	-34.2185	-25.3166	252.846	10.0031	17.9994	261.059	10.1451	-4.63924	261.52	-0.196652	-23.7707	231.341	11.9337	50.3388	229.614	9.68389	77.3678	204.408	6.62774	60.3974	
2	0.0166667	196.382	-29.8787	62.0182	201.829	-44.6434	32.8041	208.659	-49.3292	7.99287	222.461	-48.5311	-8.60372	197.729	-4.4924	0.0417671	199.145	-18.6123	-22.4937	213.41	-41.4855	-29.5906	215.173	5.47193	-7.43447	219.239	-6.92136	-31.8575	231.663	-31.0567	-45.3712	235.873	7.73109	1.43842	239.473	-3.42256	-19.1067	244.531	-27.8184	-29.8522	251.87	11.8383	16.6348	260.399	11.1077	-1.96239	262.382	4.84029	-20.9441	230.979	11.951	48.6267	231.008	11.6044	74.2004	205.352	5.93276	61.2453	
3	0.025	195.774	-31.7334	58.368	200.368	-49.6026	34.0319	209.777	-51.0039	6.959	222.738	-53.3643	-10.854	194.724	-7.84673	0.713037	201.416	-24.9224	-24.8977	216.413	-44.5143	-30.3589	217.127	5.41215	-6.19331	222.394	-8.62337	-33.0281	233.845	-30.8383	-44.1141	231.941	8.92816	-0.644789	239.288	-2.60199	-23.7349	242.823	-24.1192	-33.7924	250.188	11.6835	17.0158	257.475	12.4176	-0.708364	263.592	5.44959	-24.7	225.847	11.9579	47.969	228.742	8.32276	75.5402	200.678	2.55093	56.5498	
4	0.0333333	194.714	-33.9686	56.293	202.268	-50.8554	33.2422	210.061	-54.7247	7.97577	223.595	-55.7266	-10.9546	195.458	-10.4868	-3.79747	199.216	-25.3451	-24.5777	216.726	-45.2075	-31.3411	210.835	1.72607	-3.83505	219.43	-12.3438	-33.0806	230.383	-32.263	-44.7495	229.809	7.25976	3.74159	234.978	-2.55734	-24.6652	242.483	-21.9926	-37.9582	249.693	11.1747	18.923	256.388	13.7497	-5.72474	262.32	6.97069	-24.9111	224.948	9.9541	50.1751	228.385	10.7076	75.1249	204.095	2.06098	59.6446	
5	0.0416667	196.03	-36.6085	54.7691	205.054	-51.8275	33.187	211.561	-57.7006	12.6526	222.274	-59.5732	-8.06957	191.676	-16.1276	-2.55949	203.072	-28.1069	-25.4942	213.95	-53.2152	-32.9398	210.91	0.221197	-4.82965	218.763	-11.0594	-31.8442	229.275	-33.3414	-43.9605	226.249	6.59389	-0.465922	235.06	0.83676	-23.2247	238.693	-18.3719	-36.6849	248.364	13.3336	15.181	251.231	14.635	-2.95034	261.279	10.8655	-26.8436	226.274	10.6868	46.7117	223.805	7.97067	71.307	201.471	0.169472	55.1262	
6	0.05	198.055	-38.4108	56.0031	203.508	-57.7467	33.7699	210.363	-63.7378	8.9183	221.861	-66.3243	-9.30669	190.989	-19.0523	-2.86795	198.114	-34.6782	-25.6368	217.252	-50.4226	-33.2414	205.411	-3.69531	-6.37332	214.694	-15.2434	-31.7886	230.403	-37.1681	-43.2846	226.082	8.25006	-0.546517	232.949	0.900207	-23.6942	239.869	-16.3296	-38.0486	241.973	11.8709	16.5268	251.649	15.8024	-5.09289	257.444	12.1356	-27.4064	219.278	8.39695	49.1563	219.103	5.20213	73.0385	197.442	-4.38808	55.4752	
7	0.0583333	197.382	-42.5909	60.4876	204.619	-59.6252	34.3612	211.453	-65.334	11.2443	221.947	-67.5828	-10.1024	187.411	-23.1147	-3.0858	200.773	-36.3486	-25.8908	217.366	-55.4836	-33.8828	205.534	-6.13261	-8.14972	214.671	-19.4326	-32.0698	235.649	-42.1008	-41.328	223.795	6.81177	-1.43217	231.234	-0.167169	-24.8279	235.075	-17.6554	-38.537	238.51	11.9343	17.4057	243.95	15.6976	-2.60036	252.731	16.02	-25.3768	214.571	8.43139	44.8347	216.627	5.19823	74.7892	193.241	-8.01695	58.6434	
8	0.0666667	198.146	-40.7479	56.4019	204.711	-61.1763	35.6597	211.596	-65.4207	14.4578	221.401	-70.0797	-6.73156	187.986	-24.7327	-3.73595	196.843	-38.1453	-25.4077	213.859	-53.0244	-32.9431	203.876	-7.22218	-7.08391	216.011	-23.3473	-32.3281	230.627	-41.7943	-37.6388	217.947	4.22661	2.1305	225.239	-1.8627	-22.5424	236.087	-20.8645	-39.8026	236.533	13.1524	15.5101	240.173	14.6879	-5.86684	249.958	15.7855	-22.7871	215.827	10.0149	46.0554	217.051	7.0086	71.2781	195.082	-7.89359	59.2096	
9	0.075	195.546	-43.6921	61.2591	204.781	-61.9493	35.3267	210.392	-67.1087	14.2657	220.548	-69.3708	-8.60345	186.556	-24.3243	-3.56242	191.906	-39.2567	-22.4524	213.911	-56.7745	-31.7051	198.966	-10.5702	-9.75164	214.083	-25.2895	-31.7575	229.853	-45.3913	-35.2379	215.898	4.3797	1.53628	221.565	-3.15739	-22.9777	232.03	-21.7275	-38.0886	235.221	14.5081	14.8928	237.405	15.9911	-5.97326	241.126	15.3893	-26.0819	211.535	4.27549	47.5829	215.163	6.51614	69.5201	193.55	-6.14763	60.0835	
10	0.0833333	195.937	-41.4179	58.675	202.704	-62.8838	32.9388	210.163	-68.8174	11.5712	221.264	-66.37	-9.4924	182.196	-26.1407	0.63471	192.339	-42.1651	-24.5183	212.117	-52.9971	-32.2132	198.839	-10.2396	-8.62973	211.969	-21.9326	-30.389	231.379	-45.1998	-30.907	213.736	5.28681	-2.26268	219.714	-2.95423	-24.2016	230.342	-22.0682	-37.3596	232.611	14.9555	14.1762	233.245	16.3987	-6.38933	238.328	15.698	-29.7165	209.295	4.58802	49.1945	211.516	6.42445	73.6475	192.703	-9.37549	60.1525	
11	0.0916667	196.165	-43.4631	62.9804	203.819	-57.7126	36.0193	210.085	-64.3201	8.563	221.205	-63.7395	-12.0836	180.38	-28.4582	-1.14229	191.756	-39.681	-24.4476	212.322	-55.9783	-31.2164	194.779	-11.6412	-5.20996	210.683	-24.8182	-30.2908	229.229	-48.0847	-28.2675	210.414	5.40433	-1.55061	218.479	-2.46351	-23.9392	229.195	-24.6925	-36.5369	225.381	14.5688	10.2297	231.352	18.3935	-9.60087	237.116	17.0413	-28.3451	207.831	7.61347	44.0715	209.879	6.22067	71.7574	187.79	-11.5879	56.5408	
12	0.1	194.243	-44.5859	61.8898	203.259	-58.1069	35.3088	209.933	-63.3704	13.6773	219.729	-62.1657	-8.33422	178.221	-28.1067	-3.36953	190.865	-38.3406	-24.3934	206.426	-55.0733	-30.6623	193.656	-11.9612	-10.2277	213.567	-25.2962	-29.2098	231.413	-45.6421	-23.8177	208.099	4.79959	-2.97713	219.368	-3.38174	-26.5395	226.811	-24.8205	-36.6885	225.453	17.3964	10.9788	227.783	18.1878	-8.54324	232.476	16.403	-28.799	204.007	8.2084	45.7711	208.969	6.37261	70.6434	186.294	-9.8089	60.5895	
13	0.108333	195.332	-40.462	59.2658	203.439	-58.5979	34.3114	209.271	-60.5048	12.1268	220.011	-61.212	-7.39824	179.979	-24.872	-0.365734	190.051	-36.5079	-24.4888	210.948	-56.0347	-31.5963	195.91	-7.33337	-6.0515	210.348	-22.6182	-28.4088	233.102	-46.6591	-20.4529	208.923	6.90601	-3.8479	212.888	-5.33681	-23.9675	226.292	-20.6636	-35.1448	225.644	17.6429	14.5386	228.682	19.3378	-9.55774	229.602	17.1384	-26.0939	204.026	7.14425	48.6687	207.352	7.38256	69.8151	184.857	-10.1998	60.9131	
14	0.116667	194.009	-42.1805	59.1898	202.491	-61.7645	35.5036	209.082	-61.2817	11.8613	220.855	-57.5834	-12.4238	176.4	-27.0824	-3.59999	190.475	-37.9557	-25.0081	207.255	-55.348	-30.4172	192.076	-11.9046	-7.32795	209.091	-22.5861	-27.6562	230.614	-46.813	-19.3994	207.803	7.23748	-2.23369	215.004	-5.30444	-27.0245	226.877	-25.9362	-35.1582	223.108	16.6436	13.7604	228.283	22.2654	-5.71901	230.77	18.8188	-29.6546	204.858	9.6935	46.8032	204.67	6.55407	71.9955	185.062	-10.3378	56.8859	
15	0.125	192.034	-43.3986	58.8723	202.833	-59.2702	34.9734	208.937	-62.6757	11.993	219.821	-58.587	-8.65256	175.002	-28.1	-2.44475	188.017	-41.1127	-24.4713	206.514	-56.8655	-30.2269	192.265	-11.9583	-9.55975	207.942	-29.0041	-27.9265	227.932	-47.5375	-20.6894	202.741	4.04196	-3.33778	214.446	-0.685186	-24.7418	227.7	-23.4086	-35.1614	221.777	17.9169	12.741	226.452	21.4521	-6.62921	228.931	19.9114	-28.383	203.502	11.5405	47.7628	205.056	10.5049	69.5875	185.191	-10.4138	60.2514	
16	0.133333	194.152	-41.1275	59.6808	202.142	-60.6314	33.4345	209.116	-59.0925	8.80874	220.673	-57.2001	-10.9967	174.836	-28.6384	-3.32645	185.53	-41.6818	-23.8983	209.83	-54.7925	-31.0367	189.693	-11.5596	-6.58531	205.578	-26.7802	-27.7292	230.384	-43.3693	-20.8021	202.931	3.94041	1.01742	213.341	-5.25181	-25.9688	226.312	-25.8681	-35.1803	221.289	17.4613	14.953	224.475	19.5627	-9.83722	227.746	19.349	-29.9606	201.245	9.69923	48.4479	204.812	9.59782	73.1069	185.718	-10.376	60.9767	
17	0.141667	191.421	-43.9306	58.1705	202.914	-57.5409	31.2511	209.183	-63.6017	10.9572	219.469	-59.6631	-9.19082	175.969	-26.8234	-3.96917	187.248	-39.033	-24.8146	207.273	-53.6975	-30.4115	192.086	-11.1327	-9.45783	208.893	-27.6777	-28.2539	227.882	-48.2991	-20.6828	201.473	2.91875	-2.58059	215.616	-6.04415	-27.1069	223.903	-25.5944	-34.057	218.544	16.878	10.5205	224.127	20.03	-10.0159	229.045	23.6432	-27.0897	201.244	10.244	47.8705	204.379	8.41427	74.7552	182.948	-13.1189	60.8881	
18	0.15	190.772	-46.9093	62.2466	201.583	-59.7271	31.6869	208.977	-65.5273	11.6	220.06	-60.9815	-11.4686	173.582	-29.9594	-0.776135	184.558	-39.04	-23.162	209.576	-54.1564	-31.7544	188.939	-13.5836	-10.1358	205.99	-24.4774	-27.6163	231.097	-45.6596	-19.4337	204.537	5.85381	0.711597	211.057	-4.00903	-24.3417	224.681	-26.2726	-33.9318	218.694	15.7882	14.247	222.565	19.5783	-10.1777	227.985	21.4864	-24.9394	197.742	6.416	46.3539	202.94	4.08022	72.0644	183.223	-10.8178	60.047	
19	0.158333	189.839	-46.0192	59.5322	201.048	-57.773	32.1559	208.521	-62.6012	13.5381	220.228	-60.561	-9.76065	174.562	-29.3941	1.5664	184.405	-40.7265	-23.2198	203.643	-57.0048	-30.3348	192.459	-10.2857	-9.72027	207.707	-26.718	-27.5967	229.668	-48.3147	-18.5593	203.406	4.62329	-3.69071	210.064	-7.37191	-25.5549	225.928	-28.7401	-33.6138	218.082	13.7218	14.3897	222.894	19.4455	-6.72629	224.224	19.9046	-29.616	196.934	6.36255	44.4928	202.119	6.98553	69.6472	183.837	-10.4753	61.8258	
